<?xml version="1.0" standalone="no"?><!DOCTYPE svg PUBLIC "-//W3C//DTD SVG 1.1//EN"
        "http://www.w3.org/Graphics/SVG/1.1/DTD/svg11.dtd">
<svg class="icon" viewBox="0 0 1024 1024" version="1.1" xmlns="http://www.w3.org/2000/svg"
     xmlns:xlink="http://www.w3.org/1999/xlink" width="200" height="200">
    <path d="M64 64m41.984 0l812.032 0q41.984 0 41.984 41.984l0 812.032q0 41.984-41.984 41.984l-812.032 0q-41.984 0-41.984-41.984l0-812.032q0-41.984 41.984-41.984Z"
          fill="#0a66c2"/>
    <path d="M583.84 760.288v98.176a207.744 207.744 0 0 0 56.448 18.4 369.92 369.92 0 0 0 68.672 6.144 318.976 318.976 0 0 0 66.816-6.752 163.52 163.52 0 0 0 55.52-22.4 113.344 113.344 0 0 0 37.792-40.512 143.008 143.008 0 0 0 5.952-108.608 109.088 109.088 0 0 0-22.944-35.744 167.552 167.552 0 0 0-35.936-28.064 384.864 384.864 0 0 0-47.264-23.488q-19.2-7.968-34.56-15.488a176 176 0 0 1-26.016-15.328 66.848 66.848 0 0 1-16.512-16.576 34.912 34.912 0 0 1-5.792-19.776 33.248 33.248 0 0 1 5.184-18.272 44.8 44.8 0 0 1 14.688-13.952 78.048 78.048 0 0 1 23.232-9.056 134.752 134.752 0 0 1 30.592-3.2 190.144 190.144 0 0 1 25.856 1.856 201.344 201.344 0 0 1 27.392 5.664 191.808 191.808 0 0 1 26.752 9.6 149.024 149.024 0 0 1 24.032 13.504V444.8a240.288 240.288 0 0 0-48.8-12.8 397.632 397.632 0 0 0-60.8-4.128 280.544 280.544 0 0 0-66.048 7.52 167.648 167.648 0 0 0-54.912 23.456 116.96 116.96 0 0 0-37.472 40.672 119.392 119.392 0 0 0-13.792 59.04 114.816 114.816 0 0 0 25.248 74.88 192 192 0 0 0 76.64 52.448q20.16 8.32 37.6 16.288a206.656 206.656 0 0 1 30.144 16.544 78.816 78.816 0 0 1 20.032 18.72 38.4 38.4 0 0 1 7.36 23.008 35.2 35.2 0 0 1-4.608 17.664 40.608 40.608 0 0 1-13.92 14.112 76.192 76.192 0 0 1-23.232 9.344 140.064 140.064 0 0 1-32.576 3.36 184.736 184.736 0 0 1-63.008-11.2 187.968 187.968 0 0 1-57.76-33.44z m-164.928-244.416h128v-80.864H190.016v80.864H317.44v360.128h101.472z"
          fill="#fff"/>
</svg>
